<?xml version="1.1"?>

<svg width="624" height="475" viewBox="0 0 624 475" fill="none" xmlns="http://www.w3.org/2000/svg">
<g clip-path="url(#clip0)">
<path opacity="0.1" d="M624 305.077C624.014 317.913 622.759 330.715 620.254 343.267C619.414 347.471 618.437 351.591 617.325 355.628C615.947 360.661 614.372 365.54 612.599 370.265C611.698 372.672 610.746 375.036 609.743 377.36C609.778 390.455 607.593 403.449 603.296 415.708C595.693 437.275 581.85 454.869 564.526 465.147C553.731 471.599 541.576 474.99 529.215 475H118.456C96.5017 475 76.1524 466.64 59.4692 452.395C54.5914 448.213 50.0591 443.59 45.9224 438.575C40.168 431.58 35.172 423.909 31.0299 415.708C21.4195 396.781 15.8832 374.499 15.8832 350.651C5.84361 328.874 0 302.767 0 274.674C0 239.265 9.30315 206.972 24.5877 182.516C27.7402 177.461 31.23 172.656 35.0299 168.14C38.7005 163.77 42.6939 159.723 46.9714 156.04C50.325 153.153 53.8659 150.524 57.5672 148.174C59.0983 147.209 60.6347 146.301 62.1976 145.456C63.568 144.699 64.9561 143.993 66.3618 143.339C68.0465 142.544 69.7525 141.816 71.4796 141.154C73.2067 140.491 74.9109 139.911 76.5921 139.411C79.0768 138.668 81.597 138.067 84.1416 137.612C86.2608 137.221 88.38 136.931 90.4991 136.744C92.1839 136.596 93.8827 136.511 95.5957 136.488C95.9083 136.488 96.2103 136.488 96.5229 136.488C98.4089 136.488 100.284 136.585 102.144 136.738C102.34 136.25 102.552 135.762 102.748 135.274C103.49 133.526 104.258 131.789 105.031 130.075C105.033 130.06 105.033 130.045 105.031 130.03C105.164 129.735 105.296 129.462 105.434 129.15C106.059 127.754 106.711 126.369 107.378 124.996C107.686 124.36 107.988 123.73 108.3 123.1C108.369 122.952 108.438 122.811 108.517 122.663C108.835 122.01 109.158 121.363 109.487 120.716C111.122 117.489 112.823 114.311 114.589 111.182C114.742 110.915 114.885 110.648 115.039 110.387C115.315 109.905 115.569 109.422 115.876 108.946C116.607 107.674 117.36 106.409 118.117 105.154C118.647 104.269 119.177 103.384 119.749 102.51C121.126 100.296 122.539 98.1111 123.987 95.9544C125.435 93.7978 126.94 91.6411 128.501 89.4844C128.713 89.1893 128.925 88.9169 129.147 88.6048L131.41 85.557L131.722 85.1427L132.543 84.0701C133.757 82.4866 135.002 80.9202 136.252 79.3708C142.548 71.5969 149.327 64.2873 156.543 57.492C156.824 57.2139 157.11 56.9245 157.391 56.6861C158.736 55.4318 160.103 54.1946 161.47 52.98C168.92 46.3628 176.781 40.295 184.998 34.8186C185.56 34.4327 186.132 34.0581 186.709 33.6836C193.968 28.9325 201.485 24.6494 209.22 20.8571C213.459 18.7685 217.741 16.8351 222.068 15.0568C224.939 13.8876 227.821 12.7866 230.74 11.7423C235.254 10.1456 239.825 8.6984 244.451 7.40062C258.022 3.62448 271.905 1.28257 285.902 0.408484C290.141 0.136063 294.427 -0.000146942 298.76 -0.000146942C319.752 -0.0207903 340.633 3.24688 360.741 9.69917C360.925 10.0742 361.202 10.3878 361.541 10.606C361.88 10.8241 362.268 10.9384 362.664 10.9364H364.449C365.223 11.1975 365.991 11.4699 366.765 11.7423C371.084 13.2785 375.342 14.9603 379.538 16.7878L380.598 17.2532C400.636 26.0847 419.312 38.1127 435.993 52.929C437.232 54.0224 438.454 55.1329 439.659 56.2604C441.121 55.0989 442.608 53.9884 444.12 52.929C449.87 48.8555 456.079 45.5793 462.599 43.1786C475.949 38.256 490.34 37.5585 504.05 41.1695C521.665 45.7949 537.612 57.2707 550.491 73.5876C555.802 80.3682 560.468 87.6993 564.42 95.472C564.711 96.0396 565.002 96.6071 565.283 97.1747C568.763 104.211 571.728 111.526 574.152 119.053C574.242 119.326 574.332 119.621 574.412 119.871C576.683 127.021 578.506 134.327 579.868 141.738C579.932 142.113 580.006 142.493 580.07 142.873C581.354 150.102 582.225 157.409 582.676 164.752C582.676 165.019 582.676 165.286 582.719 165.552C582.941 169.359 583.054 173.207 583.058 177.096C583.058 180.577 582.968 184.024 582.788 187.437C582.788 187.817 582.745 188.203 582.719 188.572C582.671 189.565 582.602 190.558 582.533 191.546C586.62 195.632 590.407 200.049 593.86 204.758C595.404 206.851 596.898 209.017 598.342 211.257C602.789 218.169 606.654 225.491 609.892 233.135C618.851 254.106 624 278.726 624 305.077Z" fill="#6C63FF"/>
<path opacity="0.1" d="M568.372 453.07C568.372 461.498 544.044 469.188 504.066 475H128.973C88.9998 469.188 64.6718 461.498 64.6718 453.07C64.6718 446.651 78.7854 440.658 103.188 435.595L103.876 435.453C110.764 434.04 118.462 432.701 126.875 431.447L127.516 431.35C134.191 430.363 141.292 429.43 148.819 428.552L149.529 428.473C152.432 428.132 155.395 427.803 158.418 427.485L159.584 427.366C181.597 425.096 206.619 423.257 233.755 422.025H233.787C237.587 421.855 241.428 421.696 245.31 421.549C249.626 421.378 253.995 421.227 258.417 421.095C261.792 420.987 265.209 420.896 268.637 420.811H268.716C284.181 420.419 300.159 420.215 316.498 420.215C356.9 420.215 395.087 421.458 428.925 423.666H429.021C434.223 424.006 439.33 424.364 444.31 424.75L448.549 425.084C454.168 425.538 459.642 426.019 464.972 426.526C527.663 432.502 568.372 442.167 568.372 453.07Z" fill="#6C63FF"/>
<path opacity="0.03" d="M167.897 59.7738V76.9874C167.897 77.2934 167.842 77.5966 167.733 77.8796C167.624 78.1625 167.464 78.4197 167.262 78.6364C167.06 78.8531 166.821 79.025 166.557 79.1423C166.293 79.2596 166.01 79.32 165.724 79.32H136.31C142.606 71.546 149.386 64.2364 156.601 57.4412H165.73C166.015 57.4419 166.297 57.5028 166.56 57.6205C166.824 57.7381 167.063 57.9101 167.264 58.1267C167.465 58.3433 167.625 58.6002 167.733 58.8828C167.842 59.1655 167.897 59.4682 167.897 59.7738V59.7738Z" stroke="white" stroke-miterlimit="10"/>
<path d="M527.837 59.7397V318.324C527.837 320.13 527.168 321.862 525.975 323.14C524.783 324.417 523.166 325.134 521.48 325.134H90.4991C88.813 325.134 87.196 324.417 86.0037 323.14C84.8114 321.862 84.1416 320.13 84.1416 318.324V137.612C86.2608 137.221 88.38 136.931 90.4991 136.744C92.1839 136.596 93.8827 136.511 95.5957 136.489C95.9083 136.489 96.2103 136.489 96.5229 136.489C98.4089 136.489 100.284 136.585 102.144 136.738C102.34 136.25 102.552 135.762 102.748 135.274C103.49 133.526 104.258 131.789 105.031 130.075C105.033 130.06 105.033 130.045 105.031 130.03C105.164 129.735 105.296 129.462 105.434 129.15C106.059 127.754 106.711 126.369 107.378 124.996C107.686 124.36 107.988 123.73 108.3 123.1C108.369 122.953 108.438 122.811 108.517 122.663C108.835 122.011 109.158 121.364 109.487 120.717C111.122 117.489 112.823 114.311 114.589 111.182C114.742 110.915 114.885 110.648 115.039 110.387C115.315 109.905 115.569 109.422 115.876 108.946C116.607 107.674 117.36 106.409 118.117 105.155C118.647 104.269 119.177 103.384 119.749 102.51C121.126 100.296 122.539 98.1113 123.987 95.9546C125.435 93.798 126.94 91.6413 128.501 89.4846C128.713 89.1895 128.925 88.9171 129.147 88.6049L131.41 85.5572L131.722 85.1429L132.543 84.0703C133.757 82.4868 135.002 80.9204 136.252 79.371C142.548 71.5971 149.327 64.2875 156.543 57.4922C156.824 57.2141 157.11 56.9247 157.391 56.6863C158.736 55.432 160.103 54.1948 161.47 52.9802H436.009C437.248 54.0737 438.47 55.1842 439.675 56.3117C441.137 55.1501 442.624 54.0396 444.135 52.9802H521.485C523.162 52.9817 524.771 53.6929 525.96 54.9589C527.15 56.2249 527.825 57.9433 527.837 59.7397Z" fill="white"/>
<path d="M502.423 102.476V108.912H115.913C116.644 107.64 117.397 106.375 118.16 105.12C118.689 104.235 119.219 103.35 119.786 102.476H502.423Z" fill="#3F3D56"/>
<path d="M419.521 316.127V71.0337H413.513V316.127H419.521Z" fill="#3F3D56"/>
<path d="M308.991 316.127V71.0337H302.983V316.127H308.991Z" fill="#3F3D56"/>
<path d="M198.46 316.127V71.0337H192.452V316.127H198.46Z" fill="#3F3D56"/>
<path d="M129.481 122.629V147.976H105.047V130.041C105.047 130.041 105.047 130.013 105.047 129.996C105.18 129.701 105.312 129.428 105.45 129.116C106.08 127.72 106.727 126.335 107.4 124.962C107.701 124.326 108.003 123.696 108.316 123.066C108.385 122.919 108.459 122.777 108.533 122.629H129.481Z" fill="url(#paint0_linear)"/>
<path d="M129.063 123.066V147.539H105.471V129.099C106.102 127.703 106.748 126.318 107.421 124.945C107.723 124.309 108.025 123.679 108.337 123.049L129.063 123.066Z" fill="#7CFCFF"/>
<path d="M228.452 114.905H204.012V140.251H228.452V114.905Z" fill="url(#paint1_linear)"/>
<path d="M228.033 115.342H204.436V139.814H228.033V115.342Z" fill="#7CFCFF"/>
<path d="M338.834 164.117H314.395V189.463H338.834V164.117Z" fill="url(#paint2_linear)"/>
<path d="M338.415 164.554H314.819V189.026H338.415V164.554Z" fill="#7CFCFF"/>
<path d="M451.468 180.905H427.029V206.251H451.468V180.905Z" fill="url(#paint3_linear)"/>
<path d="M451.044 181.342H427.447V205.814H451.044V181.342Z" fill="#7CFCFF"/>
<path d="M481.645 197.312H457.206V222.659H481.645V197.312Z" fill="url(#paint4_linear)"/>
<path d="M481.226 197.749H457.629V222.222H481.226V197.749Z" fill="#7CFCFF"/>
<path d="M519.493 153.469H495.054V178.816H519.493V153.469Z" fill="url(#paint5_linear)"/>
<path d="M519.069 153.906H495.472V178.379H519.069V153.906Z" fill="#7CFCFF"/>
<path d="M511.832 189.032H487.393V214.378H511.832V189.032Z" fill="url(#paint6_linear)"/>
<path d="M511.409 189.469H487.812V213.941H511.409V189.469Z" fill="#7CFCFF"/>
<path d="M261.792 114.905H237.352V140.251H261.792V114.905Z" fill="url(#paint7_linear)"/>
<path d="M261.373 115.342H237.776V139.814H261.373V115.342Z" fill="#7CFCFF"/>
<path d="M147.6 176.353H123.161V201.699H147.6V176.353Z" fill="url(#paint8_linear)"/>
<path d="M147.176 176.79H123.579V201.262H147.176V176.79Z" fill="#FFFFA5"/>
<path d="M246.089 151.443H221.649V176.79H246.089V151.443Z" fill="url(#paint9_linear)"/>
<path d="M245.67 151.88H222.073V176.353H245.67V151.88Z" fill="#FFFFA5"/>
<path d="M373.472 136.296H349.033V161.642H373.472V136.296Z" fill="url(#paint10_linear)"/>
<path d="M373.048 136.733H349.451V161.205H373.048V136.733Z" fill="#FFFFA5"/>
<path d="M502.418 118.52H477.979V143.867H502.418V118.52Z" fill="url(#paint11_linear)"/>
<path d="M501.999 118.957H478.402V143.43H501.999V118.957Z" fill="#FFFFA5"/>
<path d="M405.715 114.905H381.276V140.251H405.715V114.905Z" fill="url(#paint12_linear)"/>
<path d="M405.291 115.342H381.694V139.814H405.291V115.342Z" fill="#FFFFA5"/>
<path d="M404.327 164.117H379.888V189.463H404.327V164.117Z" fill="url(#paint13_linear)"/>
<path d="M403.908 164.554H380.311V189.026H403.908V164.554Z" fill="#FFFFA5"/>
<path d="M294.607 127.147H270.168V152.493H294.607V127.147Z" fill="url(#paint14_linear)"/>
<path d="M294.188 127.578H270.591V152.051H294.188V127.578Z" fill="#FFFFA5"/>
<path d="M164.755 135.302H140.316V160.649H164.755V135.302Z" fill="url(#paint15_linear)"/>
<path d="M164.336 135.74H140.739V160.212H164.336V135.74Z" fill="#FF69B4"/>
<path d="M176.977 164.117H152.538V189.463H176.977V164.117Z" fill="url(#paint16_linear)"/>
<path d="M176.553 164.554H152.956V189.026H176.553V164.554Z" fill="#FF69B4"/>
<path d="M278.348 168.231H253.908V193.578H278.348V168.231Z" fill="url(#paint17_linear)"/>
<path d="M277.924 168.668H254.327V193.141H277.924V168.668Z" fill="#FF69B4"/>
<path d="M457.206 118.52H432.766V143.867H457.206V118.52Z" fill="url(#paint18_linear)"/>
<path d="M456.787 118.957H433.19V143.43H456.787V118.957Z" fill="#FF69B4"/>
<path d="M478.832 153.469H454.392V178.816H478.832V153.469Z" fill="url(#paint19_linear)"/>
<path d="M478.413 153.906H454.816V178.379H478.413V153.906Z" fill="#FF69B4"/>
<path d="M340.969 114.905H316.53V140.251H340.969V114.905Z" fill="url(#paint20_linear)"/>
<path d="M340.551 115.342H316.954V139.814H340.551V115.342Z" fill="#FF69B4"/>
<path d="M370.706 189.032H346.267V214.378H370.706V189.032Z" fill="url(#paint21_linear)"/>
<path d="M370.282 189.469H346.685V213.941H370.282V189.469Z" fill="#FF69B4"/>
<path d="M438.509 173.595C438.44 176.472 437.529 179.27 437.386 182.142C445.333 182.562 453.115 178.447 460.951 179.707C458.763 178.192 457.592 175.45 456.903 172.755C456.023 169.278 455.76 165.654 456.13 162.073C456.15 161.882 456.182 161.693 456.225 161.506C456.517 160.098 457.285 158.101 457.068 156.994C456.803 155.53 455.51 155.819 454.35 155.904C450.807 156.195 447.281 156.681 443.786 157.363C442.875 157.533 434.001 159.905 433.868 159.661C435.33 162.369 436.819 165.184 437.709 168.135C438.26 169.894 438.531 171.739 438.509 173.595Z" fill="#EE8E9E"/>
<path d="M360.211 164.695C360.891 165.691 361.707 166.571 362.632 167.306C363.231 167.834 363.845 168.373 364.492 168.856C365.642 169.799 367.01 170.388 368.449 170.558C370.335 170.694 374.341 169.508 375.511 167.777C376.005 166.908 376.24 165.898 376.184 164.883C376.164 163.504 375.946 162.138 375.538 160.831C374.802 158.706 373.772 156.712 372.481 154.917C371.119 152.885 369.604 150.887 367.575 149.656C366.899 149.268 366.202 148.925 365.488 148.628L361.779 147.005C361.568 146.898 361.34 146.834 361.106 146.818C360.116 146.818 359.936 148.447 360.497 149.321C361.62 151.086 364.147 151.591 364.857 153.577C364.257 153.592 363.677 153.812 363.201 154.204C362.724 154.595 362.377 155.139 362.208 155.757C362.181 156.085 362.056 156.395 361.853 156.642C361.53 156.92 361.022 156.761 360.651 156.971C359.999 157.346 360.285 158.39 360.216 159.185C360.153 159.888 359.74 160.496 359.538 161.171C359.401 161.775 359.39 162.405 359.507 163.014C359.623 163.623 359.864 164.197 360.211 164.695Z" fill="#EE8E9E"/>
<path d="M469.348 453.462C468.739 452.809 467.759 452.922 466.89 453.064C462.321 453.838 457.704 454.238 453.078 454.262C452.501 451.231 454.18 448.286 454.721 445.249C454.792 444.469 454.97 443.704 455.251 442.979C455.897 441.64 457.37 441.027 458.747 440.709C461.237 440.141 465.105 439.154 466.519 441.844C468.209 445.085 468.744 449.863 469.348 453.462Z" fill="#65617D"/>
<path d="M418.748 442.02C420.623 443.393 422.954 443.819 425.211 444.131C427.468 444.443 429.789 444.67 431.834 445.749C433.598 446.68 435.081 448.212 436.951 448.882C438.647 449.489 440.501 449.324 442.249 448.972C444.369 448.552 446.583 447.73 447.717 445.789C448.729 444.086 448.617 441.878 448.48 439.846C448.316 437.576 448.162 435.249 448.003 432.951C448.008 432.367 447.871 431.792 447.606 431.282C446.085 428.915 442.398 432.275 440.427 432.27C437.296 432.27 433.937 430.453 431.685 428.229C431.49 428.001 431.261 427.809 431.007 427.661C430.112 427.23 429.222 428.024 428.427 428.717C428.342 428.796 428.252 428.87 428.162 428.944C426.334 430.499 423.887 430.811 421.63 431.441C419.373 432.071 416.952 433.337 416.253 435.72C416.207 435.871 416.172 436.024 416.147 436.18C415.744 438.41 416.994 440.732 418.748 442.02Z" fill="#3F3D56"/>
<path opacity="0.05" d="M418.748 442.02C420.623 443.393 422.954 443.819 425.211 444.131C427.468 444.443 429.789 444.67 431.834 445.749C433.598 446.68 435.081 448.212 436.951 448.882C438.647 449.489 440.501 449.324 442.249 448.972C444.369 448.552 446.583 447.73 447.717 445.789C448.729 444.086 448.617 441.878 448.48 439.846C448.316 437.576 448.162 435.249 448.003 432.951C448.008 432.367 447.871 431.792 447.606 431.282C446.085 428.915 442.398 432.275 440.427 432.27C437.296 432.27 433.937 430.453 431.685 428.229C431.49 428.001 431.261 427.809 431.007 427.661C430.112 427.23 429.222 428.024 428.427 428.717C428.342 428.796 428.252 428.87 428.162 428.944C426.334 430.499 423.887 430.811 421.63 431.441C419.373 432.071 416.952 433.337 416.253 435.72C416.207 435.871 416.172 436.024 416.147 436.18C415.744 438.41 416.994 440.732 418.748 442.02Z" fill="black"/>
<path d="M418.748 442.792C420.623 444.165 422.954 444.591 425.211 444.903C427.468 445.215 429.789 445.442 431.834 446.521C433.598 447.457 435.081 448.984 436.952 449.653C438.647 450.261 440.501 450.096 442.249 449.744C444.486 449.234 446.447 447.808 447.717 445.771C448.729 444.069 448.618 441.861 448.48 439.829C448.316 437.559 448.162 435.232 448.003 432.934C448.008 432.35 447.871 431.775 447.606 431.265C446.085 428.898 442.398 432.258 440.427 432.253C437.296 432.253 433.937 430.436 431.685 428.212C431.49 427.984 431.261 427.792 431.007 427.644C430.112 427.213 429.222 428.007 428.427 428.7C428.95 430.419 429.69 432.053 430.626 433.558C432.215 436.049 434.716 437.956 437.513 438.178C438.912 438.285 440.348 437.99 441.698 438.376C443.049 438.762 444.31 440.244 443.818 441.651C443.325 443.059 441.698 443.354 440.332 443.405C438.419 443.513 436.459 443.615 434.647 442.979C433.54 442.582 432.528 441.929 431.468 441.447C426.885 439.409 421.095 440.55 417.307 437.111C416.949 436.758 416.563 436.441 416.152 436.163C415.161 438.41 416.994 441.503 418.748 442.792Z" fill="#E8EAF2"/>
<path opacity="0.05" d="M418.748 442.792C420.623 444.165 422.954 444.591 425.211 444.903C427.468 445.215 429.789 445.442 431.834 446.521C433.598 447.457 435.081 448.984 436.952 449.653C438.647 450.261 440.501 450.096 442.249 449.744C444.486 449.234 446.447 447.808 447.717 445.771C448.729 444.069 448.618 441.861 448.48 439.829C448.316 437.559 448.162 435.232 448.003 432.934C448.008 432.35 447.871 431.775 447.606 431.265C446.085 428.898 442.398 432.258 440.427 432.253C437.296 432.253 433.937 430.436 431.685 428.212C431.49 427.984 431.261 427.792 431.007 427.644C430.112 427.213 429.222 428.007 428.427 428.7C428.95 430.419 429.69 432.053 430.626 433.558C432.215 436.049 434.716 437.956 437.513 438.178C438.912 438.285 440.348 437.99 441.698 438.376C443.049 438.762 444.31 440.244 443.818 441.651C443.325 443.059 441.698 443.354 440.332 443.405C438.419 443.513 436.459 443.615 434.647 442.979C433.54 442.582 432.528 441.929 431.468 441.447C426.885 439.409 421.095 440.55 417.307 437.111C416.949 436.758 416.563 436.441 416.152 436.163C415.161 438.41 416.994 441.503 418.748 442.792Z" fill="black"/>
<path d="M468.495 292.512C469.957 300.196 468.57 308.187 464.628 314.794C463.568 316.576 462.297 318.25 461.492 320.185C460.963 321.569 460.551 323.002 460.262 324.465L456.787 339.896C455.844 344.062 454.901 348.307 455.198 352.581C455.394 355.56 456.093 358.909 454.382 361.264C453.96 361.712 453.603 362.225 453.322 362.785C453.158 363.443 453.158 364.136 453.322 364.794C455.081 375.998 456.39 387.706 453.211 398.546C450.329 408.37 450.159 419.256 447.712 429.194C447.41 430.431 447.06 431.731 446.186 432.599C445.53 433.18 444.745 433.571 443.908 433.734C440.295 434.659 436.491 433.575 433.111 431.906C430.742 430.732 428.194 428.671 428.395 425.885C428.496 424.557 429.217 423.393 429.709 422.173C430.668 419.778 430.769 417.105 431.007 414.511C431.659 407.996 433.534 401.713 434.949 395.34C436.363 388.966 437.328 382.315 436.13 375.89C433.69 362.608 429.777 349.687 424.475 337.399C424.246 336.753 423.884 336.171 423.415 335.696C422.939 335.276 422.308 335.084 421.9 334.561C421.492 334.039 421.37 333.245 421.211 332.547C420.682 330.515 419.119 329.016 418.07 327.229C415.421 322.722 416.258 316.945 416.359 311.621C416.454 306.44 415.76 301.213 416.549 296.105C417.339 290.997 420.072 285.775 424.671 284.186C426.949 283.397 429.413 283.573 431.797 283.829C444.374 285.174 456.633 287.654 468.495 292.512Z" fill="#303D5C"/>
<path opacity="0.05" d="M468.495 292.512C469.957 300.196 468.57 308.187 464.628 314.794C463.568 316.576 462.297 318.25 461.492 320.185C460.963 321.569 460.551 323.002 460.262 324.465L456.787 339.896C455.844 344.062 454.901 348.307 455.198 352.581C455.394 355.56 456.093 358.909 454.382 361.264C453.96 361.712 453.603 362.225 453.322 362.785C453.158 363.443 453.158 364.136 453.322 364.794C455.081 375.998 456.39 387.706 453.211 398.546C450.329 408.37 450.159 419.256 447.712 429.194C447.41 430.431 447.06 431.731 446.186 432.599C445.53 433.18 444.745 433.571 443.908 433.734C440.295 434.659 436.491 433.575 433.111 431.906C430.742 430.732 428.194 428.671 428.395 425.885C428.496 424.557 429.217 423.393 429.709 422.173C430.668 419.778 430.769 417.105 431.007 414.511C431.659 407.996 433.534 401.713 434.949 395.34C436.363 388.966 437.328 382.315 436.13 375.89C433.69 362.608 429.777 349.687 424.475 337.399C424.246 336.753 423.884 336.171 423.415 335.696C422.939 335.276 422.308 335.084 421.9 334.561C421.492 334.039 421.37 333.245 421.211 332.547C420.682 330.515 419.119 329.016 418.07 327.229C415.421 322.722 416.258 316.945 416.359 311.621C416.454 306.44 415.76 301.213 416.549 296.105C417.339 290.997 420.072 285.775 424.671 284.186C426.949 283.397 429.413 283.573 431.797 283.829C444.374 285.174 456.633 287.654 468.495 292.512Z" fill="black"/>
<path d="M417.063 324.993C417.103 327.003 417.316 329.006 417.699 330.974C419.924 344.35 422.296 357.694 424.814 371.009C425.036 372.144 425.254 373.319 425.545 374.454C426.485 378.159 428.126 381.617 430.366 384.613C440.856 398.62 441.762 418.966 447.457 435.862C447.839 436.997 448.226 438.132 448.633 439.267C449.66 442.132 450.832 444.935 452.146 447.661C452.297 448.06 452.546 448.407 452.867 448.666C453.22 448.856 453.616 448.938 454.011 448.904C459.139 448.941 464.206 447.712 468.819 445.312C469.482 445.055 470.043 444.562 470.408 443.916C470.582 443.4 470.638 442.847 470.572 442.304C470.413 438.955 470.223 435.493 468.734 432.542C467.742 430.781 466.514 429.186 465.089 427.809C464.644 417.298 463.674 406.764 461.518 396.497C460.411 391.248 459.039 385.941 456.22 381.503C454.101 378.228 451.113 374.999 451.484 371.043C451.648 369.34 452.326 367.15 451.007 366.128C450.429 365.68 449.576 365.623 449.19 364.993C449.034 364.694 448.946 364.359 448.935 364.017C448.663 361.305 448.821 358.563 449.402 355.907C449.783 354.147 450.355 352.422 450.53 350.623C450.705 348.824 450.408 346.866 449.29 345.515C449.222 341.905 449.29 338.137 449.243 334.561C449.211 332.501 449.174 330.413 449.714 328.443C449.974 327.495 450.361 326.593 450.557 325.605C451.261 322.143 449.497 317.989 451.616 315.242C452.49 314.107 453.836 313.54 454.975 312.711C457.258 311.076 458.752 308.409 459.584 305.611C460.416 302.813 460.644 299.85 460.893 296.916C460.954 296.292 460.954 295.662 460.893 295.038C460.858 294.715 460.779 294.4 460.66 294.101C460.008 292.535 458.26 291.927 456.702 291.524C446.812 288.983 436.675 287.714 426.504 287.745C422.742 284.998 420.623 285.98 419.029 288.88C418.151 290.655 417.441 292.521 416.909 294.447C416.178 296.803 416.136 310.004 415.426 312.37C414.435 315.469 417.1 321.758 417.063 324.993Z" fill="#303D5C"/>
<path d="M485.083 204.889C485.364 206.966 484.432 209.009 484.326 211.104C484.236 212.931 484.781 214.719 485.094 216.524C486.307 223.561 483.976 230.684 481.597 237.369C481.149 238.448 480.869 239.599 480.771 240.775C480.707 242.96 481.878 244.958 482.201 247.114C482.874 251.655 479.759 255.905 479.69 260.497C479.69 262.608 480.283 264.759 479.791 266.802C479.462 268.17 478.667 269.339 478.101 270.616C477.099 272.886 476.834 275.435 475.875 277.71C474.154 281.831 470.445 284.521 466.922 286.99C464.914 286.275 462.742 285.423 461.624 283.488C461.141 282.535 460.83 281.494 460.707 280.418C459.945 275.724 459.971 270.934 459.997 266.172C459.943 262.091 460.151 258.01 460.623 253.959C461.333 248.783 462.901 243.794 464.024 238.703C465.444 232.284 466.143 225.65 468.379 219.492C470.318 214.077 473.343 209.219 476.527 204.571C477.74 202.795 478.699 200.258 481.057 200.666C482.05 200.846 482.968 201.347 483.687 202.102C484.407 202.857 484.894 203.829 485.083 204.889Z" fill="#6C63FF"/>
<path opacity="0.05" d="M485.083 204.889C485.364 206.966 484.432 209.009 484.326 211.104C484.236 212.931 484.781 214.719 485.094 216.524C486.307 223.561 483.976 230.684 481.597 237.369C481.149 238.448 480.869 239.599 480.771 240.775C480.707 242.96 481.878 244.958 482.201 247.114C482.874 251.655 479.759 255.905 479.69 260.497C479.69 262.608 480.283 264.759 479.791 266.802C479.462 268.17 478.667 269.339 478.101 270.616C477.099 272.886 476.834 275.435 475.875 277.71C474.154 281.831 470.445 284.521 466.922 286.99C464.914 286.275 462.742 285.423 461.624 283.488C461.141 282.535 460.83 281.494 460.707 280.418C459.945 275.724 459.971 270.934 459.997 266.172C459.943 262.091 460.151 258.01 460.623 253.959C461.333 248.783 462.901 243.794 464.024 238.703C465.444 232.284 466.143 225.65 468.379 219.492C470.318 214.077 473.343 209.219 476.527 204.571C477.74 202.795 478.699 200.258 481.057 200.666C482.05 200.846 482.968 201.347 483.687 202.102C484.407 202.857 484.894 203.829 485.083 204.889Z" fill="black"/>
<path opacity="0.1" d="M433.852 159.639C435.314 162.346 436.803 165.161 437.693 168.112C439.12 168.489 440.584 168.679 442.053 168.68C447.759 168.68 451.802 165.201 455.155 160.808C455.447 159.395 457.274 158.084 457.052 156.971C456.787 155.507 455.494 155.796 454.334 155.882C450.791 156.172 447.265 156.659 443.77 157.34C442.859 157.51 434.001 159.883 433.852 159.639Z" fill="black"/>
<path d="M442.069 168.146C452.167 168.146 460.352 159.377 460.352 148.56C460.352 137.743 452.167 128.974 442.069 128.974C431.972 128.974 423.786 137.743 423.786 148.56C423.786 159.377 431.972 168.146 442.069 168.146Z" fill="#EE8E9E"/>
<path opacity="0.1" d="M418.965 288.897C422.144 288.698 425.323 288.834 428.501 288.971C430.487 288.992 432.466 289.21 434.414 289.623C436.814 290.191 439.06 291.377 441.428 292.109C445.222 293.295 449.227 293.346 453.153 293.761C455.733 294.031 458.296 294.461 460.829 295.049C460.794 294.726 460.716 294.411 460.596 294.112C459.944 292.546 458.196 291.939 456.639 291.536C446.749 288.994 436.611 287.725 426.44 287.756C422.679 285.009 420.56 285.991 418.965 288.897Z" fill="black"/>
<path d="M431.426 180.626C432.226 181.614 433.296 182.704 434.477 182.386C434.904 182.227 435.304 181.997 435.664 181.705C437.783 180.246 440.358 179.906 442.837 179.508C447.836 178.701 452.774 177.512 457.613 175.95C459.018 175.401 460.491 175.08 461.984 174.996C465.083 174.996 467.812 177.221 469.772 179.809C471.732 182.397 473.089 185.422 474.996 188.038C476.352 189.906 477.968 191.552 479.234 193.487C482.413 198.373 483.123 204.753 482.296 210.661C481.47 216.569 479.266 222.131 477.083 227.63C475.833 230.78 474.572 233.947 472.845 236.819C473.581 241.308 473.195 246.439 471.203 250.44C470.551 251.751 469.756 253.028 469.544 254.498C469.444 255.49 469.481 256.492 469.656 257.472L470.588 264.56C470.869 266.723 471.155 268.879 471.52 271.025C472.193 274.952 473.11 279.214 471.409 282.767C469.375 287.018 471.51 292.472 470.975 297.217C465.255 294.848 459.261 293.32 453.158 292.677C449.227 292.262 445.211 292.211 441.434 291.031C439.065 290.293 436.824 289.124 434.419 288.533C432.469 288.124 430.488 287.908 428.501 287.886C424.12 287.699 419.707 287.512 415.373 288.204C415.018 288.261 414.594 288.289 414.382 287.983C414.287 287.812 414.241 287.614 414.25 287.415C414.183 285.675 414.572 283.949 415.373 282.432C415.903 281.388 416.692 280.361 416.671 279.163C416.631 278.603 416.502 278.054 416.29 277.54L414.372 272.046C412.745 267.415 413.519 262.029 412.676 257.165C412.019 253.361 411.597 249.514 411.416 245.65C411.257 242.347 411.357 238.766 413.217 236.126C413.761 235.491 414.233 234.788 414.621 234.032C414.889 233.231 415.002 232.379 414.955 231.529C414.997 224.923 414.82 218.319 414.425 211.716C416.051 208.595 417.741 205.4 419.362 202.278C421.248 198.646 423.166 194.94 423.929 190.865C424.459 188.163 424.417 185.388 424.777 182.664C424.812 181.97 425.037 181.303 425.423 180.746C426.043 179.996 427.087 179.889 428.024 179.917C429.185 179.967 430.332 180.206 431.426 180.626Z" fill="#6C63FF"/>
<path opacity="0.1" d="M364.487 168.856C365.636 169.799 367.005 170.388 368.444 170.558C370.33 170.694 374.335 169.508 375.506 167.777C376 166.908 376.235 165.899 376.179 164.883C375.925 164.794 375.662 164.739 375.395 164.718C373.345 164.588 371.252 164.457 369.26 164.985C367.268 165.513 365.339 166.807 364.492 168.816L364.487 168.856Z" fill="black"/>
<path d="M425.323 211.223C424.205 212.704 423.05 214.236 421.471 215.11C419.654 216.121 417.513 216.143 415.468 216.098C407.042 215.905 398.648 214.918 390.383 213.147C389.442 212.973 388.518 212.708 387.623 212.352C386.63 211.845 385.693 211.221 384.831 210.491C382.113 208.396 379.352 206.262 377.281 203.436C374.822 200.025 373.277 195.962 372.81 191.682C370.839 189.741 369.795 186.977 368.81 184.304C368.325 183.172 368.017 181.962 367.898 180.723C367.845 179.457 368.63 178.129 368.428 176.881C368.049 174.732 367.033 172.771 365.53 171.29C365.209 171.048 364.967 170.705 364.836 170.308C364.797 169.978 364.857 169.642 365.006 169.349C365.843 167.34 367.771 166.046 369.774 165.518C371.776 164.991 373.859 165.127 375.909 165.257C376.651 165.308 377.191 165.677 377.917 165.825L379.347 169.86C379.541 170.535 379.86 171.16 380.285 171.699C380.603 172.007 380.942 172.292 381.297 172.55C382.021 173.212 382.584 174.053 382.935 175.001C383.286 175.948 383.414 176.974 383.31 177.987C384.602 178.524 385.655 179.568 386.255 180.907C386.854 182.246 386.955 183.779 386.536 185.195C387.612 185.443 388.61 185.982 389.436 186.761C390.261 187.54 390.887 188.533 391.252 189.645C391.353 190.151 391.564 190.625 391.866 191.029C392.336 191.421 392.919 191.622 393.514 191.597C395.103 191.705 396.539 193.067 398.006 192.329C399.663 191.497 401.514 191.218 403.32 191.529C403.693 191.624 404.077 191.66 404.459 191.637C404.785 191.576 405.1 191.459 405.392 191.291C406.052 190.88 406.767 190.578 407.511 190.394C407.885 190.311 408.274 190.345 408.63 190.493C408.986 190.641 409.295 190.896 409.519 191.228C410.049 190.627 410.34 189.855 410.806 189.213C411.013 188.869 411.304 188.594 411.649 188.417C411.993 188.241 412.376 188.171 412.756 188.214C412.268 187.749 412.756 186.824 413.397 186.654C414.038 186.483 414.695 186.733 415.347 186.733C417.037 186.733 418.335 185.076 419.977 184.645C421.487 184.253 423.5 184.724 424.274 183.277C424.549 182.766 424.602 182.074 425.068 181.762C425.383 181.593 425.743 181.547 426.085 181.631C427.159 181.785 428.202 182.124 429.174 182.636C430.764 189.27 429.926 196.16 428.719 202.885C428.141 206.081 427.23 208.669 425.323 211.223Z" fill="#6C63FF"/>
<path opacity="0.1" d="M425.375 234.997L433.248 252.023C432.395 250.451 430.599 249.838 429.185 248.834C427.383 247.444 426.027 245.491 425.301 243.244C424.574 241.002 424.067 238.685 423.786 236.331C423.627 235.253 423.293 233.737 423.786 232.761C424.703 232.96 424.999 234.197 425.375 234.997Z" fill="black"/>
<path opacity="0.1" d="M448.024 249.419C449.799 251.303 451.976 252.688 453.931 254.356C458.498 258.249 461.751 263.596 464.93 268.84C465.827 270.219 466.581 271.7 467.176 273.255C466.805 273.602 466.249 273.255 465.883 272.898L459.695 267.075C458.937 266.409 458.246 265.66 457.635 264.839C456.575 263.295 456.088 261.36 455.113 259.731C454.138 258.102 452.718 256.893 451.357 255.627C449.995 254.362 443.41 248.414 444.999 246.121C446.149 246.734 447.097 248.437 448.024 249.419Z" fill="black"/>
<path d="M434.514 175.711C436.475 174.4 438.785 173.85 441.057 173.402C442.422 173.07 443.827 172.962 445.222 173.084C446.509 173.254 447.743 173.787 449.041 173.861C450.859 173.975 452.602 173.18 454.339 172.669C456.077 172.159 458.127 171.954 459.605 173.095C459.92 173.426 460.317 173.653 460.75 173.748C461.198 173.689 461.615 173.469 461.931 173.123C463.176 172.17 464.685 171.699 466.213 171.785C467.741 171.872 469.195 172.512 470.339 173.6C473.693 176.966 473.316 183.544 477.226 186.086C478.312 186.79 479.695 187.164 480.326 188.356C480.476 188.732 480.653 189.094 480.855 189.44C481.118 189.75 481.439 189.996 481.798 190.161C482.939 190.706 484.026 191.374 485.041 192.153C485.546 192.548 485.972 193.048 486.292 193.623C486.613 194.199 486.821 194.838 486.906 195.502C486.924 196.483 486.726 197.455 486.328 198.339C484.407 203.391 481.072 207.682 476.782 210.621C472.492 213.56 467.458 215.003 462.371 214.753C461.476 214.707 460.506 214.577 459.86 213.913C459.482 213.457 459.184 212.932 458.98 212.363C457.137 208.215 453.682 205.15 451.463 201.205C450.149 198.856 449.306 196.228 447.939 193.913C445.905 190.394 442.753 187.777 439.68 185.286C437.942 183.867 436.008 182.38 433.82 182.477C431.876 182.567 430.456 182.681 431.171 180.121C431.758 178.271 432.944 176.706 434.514 175.711Z" fill="#6C63FF"/>
<path opacity="0.05" d="M434.514 175.711C436.475 174.4 438.785 173.85 441.057 173.402C442.422 173.07 443.827 172.962 445.222 173.084C446.509 173.254 447.743 173.787 449.041 173.861C450.859 173.975 452.602 173.18 454.339 172.669C456.077 172.159 458.127 171.954 459.605 173.095C459.92 173.426 460.317 173.653 460.75 173.748C461.198 173.689 461.615 173.469 461.931 173.123C463.176 172.17 464.685 171.699 466.213 171.785C467.741 171.872 469.195 172.512 470.339 173.6C473.693 176.966 473.316 183.544 477.226 186.086C478.312 186.79 479.695 187.164 480.326 188.356C480.476 188.732 480.653 189.094 480.855 189.44C481.118 189.75 481.439 189.996 481.798 190.161C482.939 190.706 484.026 191.374 485.041 192.153C485.546 192.548 485.972 193.048 486.292 193.623C486.613 194.199 486.821 194.838 486.906 195.502C486.924 196.483 486.726 197.455 486.328 198.339C484.407 203.391 481.072 207.682 476.782 210.621C472.492 213.56 467.458 215.003 462.371 214.753C461.476 214.707 460.506 214.577 459.86 213.913C459.482 213.457 459.184 212.932 458.98 212.363C457.137 208.215 453.682 205.15 451.463 201.205C450.149 198.856 449.306 196.228 447.939 193.913C445.905 190.394 442.753 187.777 439.68 185.286C437.942 183.867 436.008 182.38 433.82 182.477C431.876 182.567 430.456 182.681 431.171 180.121C431.758 178.271 432.944 176.706 434.514 175.711Z" fill="black"/>
<path d="M424.999 459.608C426.324 460.931 428.146 461.509 429.911 461.924C433.932 462.866 438.043 463.201 442.144 463.541L446.138 463.87C450.037 464.183 453.942 464.506 457.857 464.523C462.688 464.542 467.511 464.096 472.267 463.189C472.458 463.211 472.651 463.183 472.831 463.11C473.01 463.036 473.17 462.918 473.299 462.766C473.427 462.613 473.521 462.43 473.571 462.231C473.621 462.033 473.626 461.824 473.587 461.623C473.505 456.404 472.912 451.209 471.817 446.123C471.362 444.035 467.865 448.717 467.711 448.916C466.742 450.096 466.005 450.618 464.532 450.72C460.511 450.959 456.003 448.337 452.808 446.01C452.125 445.462 451.398 444.98 450.636 444.568C450.081 444.288 449.49 444.097 448.882 444.001C446.811 443.797 444.73 444.249 442.896 445.3C440.496 446.577 438.387 448.411 436.009 449.722C434.077 450.789 431.99 451.497 429.836 451.816C427.659 452.139 425.068 452.293 423.94 454.313C423.013 456.004 423.68 458.274 424.999 459.608Z" fill="#3F3D56"/>
<path d="M424.999 460.38C426.324 461.702 428.146 462.281 429.911 462.696C433.932 463.638 438.043 463.973 442.144 464.313L446.138 464.642C450.037 464.954 453.942 465.278 457.857 465.295C462.688 465.314 467.511 464.867 472.267 463.961C472.484 463.955 472.698 463.902 472.894 463.804C473.091 463.707 473.267 463.567 473.412 463.394C473.581 463.11 474.307 461.981 474.302 461.646C474.222 456.43 472.903 451.226 471.812 446.146C471.356 444.057 467.86 448.74 467.706 448.938C466.736 450.119 466 450.641 464.527 450.743C460.506 450.982 455.998 448.359 452.803 446.033C452.119 445.485 451.393 445.003 450.631 444.591C450.075 444.311 449.485 444.119 448.877 444.023C449.407 447.122 453.545 450.868 455.685 452.009C460.019 454.313 465.168 453.144 469.989 453.433C470.343 453.423 470.693 453.515 471.001 453.7C471.584 454.109 471.616 454.988 471.6 455.732C471.558 456.969 471.409 458.416 470.413 459.046C469.918 459.302 469.373 459.425 468.824 459.404C456.907 459.965 444.967 459.517 433.116 458.064C431.119 457.922 429.154 457.455 427.288 456.68C426.07 456.07 424.935 455.288 423.913 454.353C422.409 455.641 423.68 459.058 424.999 460.38Z" fill="#E8EAF2"/>
<path d="M434.954 148.35C435.023 150.376 433.736 154.304 437.269 153.208C439.389 152.55 439.971 149.877 442.647 150.473C445.322 151.069 445.937 154.599 446.843 156.909C447.58 158.745 448.723 160.362 450.174 161.618C451.626 162.875 453.34 163.735 455.171 164.122C455.925 164.312 456.711 164.312 457.465 164.122C459.192 163.594 460.178 161.687 460.882 159.922C461.489 158.427 461.994 156.887 462.392 155.314C462.662 154.198 462.839 153.058 462.922 151.909C462.978 151.13 462.978 150.349 462.922 149.57C462.599 144.968 460.156 140.768 457.02 137.589C453.884 134.411 450.085 132.124 446.329 129.86C445.101 129.038 443.773 128.404 442.382 127.975C441.012 127.679 439.606 127.618 438.218 127.794C436.389 127.873 434.59 128.325 432.92 129.127C432.235 129.49 431.606 129.963 431.055 130.529C430.279 131.31 429.727 132.312 429.466 133.418C428.787 136.398 430.557 139.093 431.998 141.426C433.275 143.526 434.859 145.745 434.954 148.35Z" fill="#3F3D56"/>
<path opacity="0.1" d="M375.453 191.818C376.211 189.781 379.39 184.139 378.468 182.198C377.516 183.647 376.706 185.197 376.052 186.824C375.453 188.402 375.941 190.519 375.453 191.818Z" fill="black"/>
<path opacity="0.1" d="M431.918 141.438C430.477 139.082 428.703 136.403 429.381 133.43C429.717 132.122 430.438 130.966 431.436 130.132C431.201 130.567 431.023 131.035 430.907 131.523C430.228 134.496 432.003 137.198 433.444 139.531C434.721 141.619 436.305 143.838 436.401 146.443C436.469 148.464 435.177 152.397 438.716 151.301C440.835 150.649 441.418 147.97 444.093 148.572C446.769 149.173 447.378 152.692 448.284 155.002C449.024 156.84 450.172 158.457 451.626 159.714C453.081 160.971 454.8 161.829 456.633 162.215C457.388 162.406 458.173 162.406 458.927 162.215C459.309 162.093 459.667 161.901 459.987 161.648C459.447 162.805 458.509 163.693 457.37 164.122C456.615 164.312 455.83 164.312 455.076 164.122C453.248 163.731 451.536 162.87 450.087 161.614C448.638 160.357 447.496 158.743 446.758 156.909C445.852 154.599 445.264 151.08 442.567 150.473C439.871 149.866 439.299 152.556 437.19 153.208C433.651 154.304 434.944 150.371 434.875 148.35C434.785 145.745 433.195 143.526 431.918 141.438Z" fill="black"/>
<path opacity="0.1" d="M431.134 137.414C431.458 137.987 431.812 138.54 432.194 139.071C432.943 140.079 433.781 141.008 434.695 141.846C435.224 142.351 435.802 142.822 436.385 143.265C437.471 144.082 438.611 144.812 439.797 145.45C443.256 147.317 446.996 148.486 450.721 149.638L458.021 151.909C458.917 152.635 460.559 153.946 462.371 155.314C462.641 154.198 462.818 153.058 462.901 151.909C462.956 151.13 462.956 150.349 462.901 149.57C462.578 144.968 460.135 140.768 456.999 137.59C453.863 134.411 450.064 132.124 446.308 129.86C445.08 129.038 443.752 128.404 442.361 127.975C440.99 127.679 439.585 127.618 438.197 127.794C436.367 127.873 434.569 128.325 432.899 129.127C432.214 129.49 431.585 129.963 431.034 130.529C430.619 131.179 430.302 131.896 430.096 132.652C429.683 134.264 430.319 135.989 431.134 137.414Z" fill="black"/>
<path d="M431.134 136.886C431.458 137.459 431.812 138.013 432.194 138.543C432.943 139.551 433.781 140.48 434.695 141.318C435.224 141.823 435.802 142.294 436.385 142.737C437.471 143.554 438.611 144.284 439.797 144.922C443.256 146.789 446.996 147.959 450.721 149.116L458.021 151.387C460.57 153.452 469.094 160.217 470.53 159.372C472.22 158.379 462.964 151.358 462.964 151.358L462.535 151.704C463.892 150.791 464.601 148.674 464.909 146.846C465.438 143.571 465.703 140.166 464.978 136.931C464.252 133.696 462.44 130.614 459.68 129.099C458.451 128.424 456.962 127.964 456.077 126.925C455.943 126.772 455.826 126.602 455.727 126.42C455.676 126.335 455.63 126.245 455.59 126.154C455.494 125.868 455.364 125.597 455.203 125.348C454.673 124.718 453.772 124.905 453.004 125.007L452.761 125.035C452.623 125.035 452.485 125.035 452.347 125.035C449.603 125.104 446.943 123.463 444.167 123.463C441.121 123.463 438.536 125.348 435.855 126.636C435.325 126.897 434.795 127.135 434.318 127.379C432.385 128.344 430.928 129.372 430.128 132.118C429.683 133.736 430.319 135.461 431.134 136.886Z" fill="#6C63FF"/>
<path opacity="0.1" d="M452.363 125.053C452.214 125.327 452.161 125.648 452.214 125.96C452.266 126.272 452.42 126.554 452.649 126.755C452.989 127.013 453.389 127.167 453.804 127.198C454.101 127.24 454.4 127.264 454.7 127.272C455.106 127.304 455.514 127.228 455.886 127.05C455.96 127.012 456.029 126.964 456.093 126.908C455.959 126.755 455.842 126.585 455.743 126.403C455.674 126.46 455.605 126.449 455.33 126.403C454.829 126.375 454.333 126.284 453.852 126.131C453.596 126.063 453.362 125.921 453.175 125.721C452.988 125.521 452.856 125.27 452.792 124.996L452.363 125.053Z" fill="black"/>
<path opacity="0.1" d="M462.8 151.279C462.416 151.536 461.987 151.708 461.539 151.784C461.218 151.875 460.89 151.932 460.559 151.954C459.721 151.915 458.904 151.668 458.17 151.233L462.8 151.279Z" fill="black"/>
<path d="M233.315 211.166L233.591 211.086L234.306 212.727L240.203 226.348C239.947 226.69 239.714 227.05 239.503 227.426C239.429 227.557 239.355 227.687 239.286 227.84C239.217 227.994 239.143 228.147 239.079 228.306C239.053 228.356 239.032 228.409 239.016 228.465C239 228.499 239.005 228.499 238.973 228.578C238.942 228.658 238.915 228.743 238.889 228.822C238.849 228.88 238.827 228.933 238.784 228.985L238.777 229.01L238.751 229.078L238.693 229.301V229.322V229.401L238.661 229.571C238.661 229.576 238.66 229.581 238.66 229.586C238.66 229.589 238.661 229.591 238.661 229.594C238.66 229.597 238.66 229.599 238.66 229.602C238.66 229.607 238.66 229.612 238.661 229.617V229.622V229.639V229.645V229.668C238.662 229.675 238.663 229.682 238.663 229.688C238.663 229.697 238.662 229.705 238.661 229.713V229.759V229.793V229.867C238.647 230.055 238.647 230.245 238.661 230.434V230.576C238.364 230.485 238.036 230.15 237.771 229.322C237.684 229.049 237.64 228.764 237.638 228.476C237.588 226.702 238.985 224.829 239.205 224.534C239.215 224.52 239.223 224.51 239.228 224.503L234.036 212.783L233.315 211.166Z" fill="url(#paint22_linear)"/>
<path d="M240.022 232.347H240.054C240.153 232.305 240.244 232.245 240.324 232.171L240.311 232.193C240.316 232.19 240.32 232.186 240.324 232.182L240.245 232.318L240.197 232.398C240.171 232.439 240.148 232.483 240.128 232.528C240.079 232.609 240.038 232.694 239.994 232.784C239.986 232.8 239.978 232.818 239.969 232.835C239.869 233.05 239.793 233.276 239.742 233.51C239.741 233.516 239.74 233.521 239.74 233.527C239.74 233.533 239.741 233.539 239.742 233.544C239.741 233.545 239.741 233.546 239.741 233.547C239.741 233.548 239.741 233.549 239.742 233.55C239.741 233.551 239.741 233.552 239.741 233.553C239.741 233.554 239.741 233.555 239.742 233.556C239.74 233.567 239.739 233.579 239.74 233.591C239.741 233.594 239.741 233.597 239.742 233.601C239.744 233.606 239.745 233.612 239.745 233.618C239.745 233.621 239.745 233.623 239.745 233.626C239.744 233.629 239.743 233.632 239.742 233.635C239.608 233.423 239.437 233.242 239.238 233.102C239.08 233.001 238.95 232.854 238.865 232.679C238.78 232.503 238.742 232.306 238.756 232.108C238.761 231.882 238.8 231.657 238.873 231.444C238.962 231.683 239.092 231.902 239.254 232.091L239.334 232.171C239.398 232.231 239.471 232.279 239.551 232.313C239.582 232.326 239.614 232.338 239.646 232.347H239.699C239.805 232.376 239.916 232.376 240.022 232.347Z" fill="url(#paint23_linear)"/>
<path d="M260.398 426.98C260.398 426.98 268.345 428.024 272.176 426.606C276.006 425.187 270.989 432.707 265.781 434.489C262.099 435.638 258.305 436.328 254.475 436.543L248.351 430.374L241.85 430.908L242.984 437.718L240.965 437.922L240.181 428.989L260.398 426.98Z" fill="#444053"/>
<path opacity="0.1" d="M260.398 426.98C260.398 426.98 268.345 428.024 272.176 426.606C276.006 425.187 270.989 432.707 265.781 434.489C262.099 435.638 258.305 436.328 254.475 436.543L248.351 430.374L241.85 430.908L242.984 437.718L240.965 437.922L240.181 428.989L260.398 426.98Z" fill="black"/>
<path d="M271.847 442.576C271.847 442.576 281.357 444.807 286.151 443.552C290.946 442.298 284.069 450.811 277.553 452.344C271.036 453.876 263.609 453.479 263.609 453.479L256.865 445.221L248.918 445.079L249.569 453.507H247.095V442.576H271.847Z" fill="#444053"/>
<path opacity="0.1" d="M271.847 442.576C271.847 442.576 281.357 444.807 286.151 443.552C290.946 442.298 284.069 450.811 277.553 452.344C271.036 453.876 263.609 453.479 263.609 453.479L256.865 445.221L248.918 445.079L249.569 453.507H247.095V442.576H271.847Z" fill="black"/>
<path d="M236.669 248.709C236.669 248.709 220.383 268.108 230.152 290.02C230.152 290.02 230.682 293.931 230.285 294.629C229.887 295.327 231.848 304.396 231.848 304.396C231.848 304.396 232.113 320.855 231.848 323.659C231.583 326.462 231.318 327.983 231.318 327.983C231.318 327.983 227.678 358.387 228.849 367.467C230.02 376.548 230.544 392.729 230.544 392.729L235.366 436.276L260.382 431.254L249.045 371.514L248.653 360.907C248.653 360.907 253.347 347.927 251.259 341.366C249.172 334.805 251.789 251.201 251.789 251.201L236.669 248.709Z" fill="#303D5C"/>
<path opacity="0.05" d="M236.669 248.709C236.669 248.709 220.383 268.108 230.152 290.02C230.152 290.02 230.682 293.931 230.285 294.629C229.887 295.327 231.848 304.396 231.848 304.396C231.848 304.396 232.113 320.855 231.848 323.659C231.583 326.462 231.318 327.983 231.318 327.983C231.318 327.983 227.678 358.387 228.849 367.467C230.02 376.548 230.544 392.729 230.544 392.729L235.366 436.276L260.382 431.254L249.045 371.514L248.653 360.907C248.653 360.907 253.347 347.927 251.259 341.366C249.172 334.805 251.789 251.201 251.789 251.201L236.669 248.709Z" fill="black"/>
<path d="M248.653 342.496C251.519 348.358 249.712 362.592 249.712 362.592C245.935 366.083 248.017 396.509 248.017 396.509C248.017 396.509 245.41 426.52 243.72 429.994C242.03 433.467 242.285 447.86 242.285 447.86C261.437 451.628 273.945 443.535 273.945 443.535C273.945 443.535 267.821 428.598 267.693 427.905C267.619 427.514 266.809 428.575 266.565 428.881C266.692 428.694 267.026 428.206 267.693 427.179C270.3 423.268 267.693 415.731 267.693 415.731C267.693 415.731 270.952 391.446 269.389 389.21C267.826 386.974 269.648 378.745 270.56 376.792C271.471 374.84 272.642 370.231 272.642 368.279C272.718 366.761 272.982 365.261 273.426 363.818C277.463 357.672 276.684 347.484 276.684 347.484C276.684 347.484 276.424 332.83 278.766 321.247C281.108 309.663 275.842 276.859 275.842 276.859C275.842 276.859 277.595 270.44 276.292 268.068C275.704 267.001 275.762 264.487 276.038 262.052C276.356 259.072 276.944 256.206 276.944 256.206L241.4 249.447C240.653 250.781 239.969 252.075 239.339 253.317C227.583 276.587 235.509 285.236 235.509 285.236L243.053 310.146C243.053 310.146 245.776 336.638 248.653 342.496Z" fill="#303D5C"/>
<path d="M305.07 160.354L310.151 164.974C310.151 164.974 311.147 164.122 312.482 162.845C315.661 159.769 320.81 154.202 318.882 151.841C316.233 148.617 313.584 150.706 313.42 150.853C313.706 150.53 319.603 143.759 317.187 144.304C314.771 144.848 310.151 150.728 310.151 150.728L306.501 157.635L305.07 160.354Z" fill="#EFB7B9"/>
<path d="M236.928 235.729L242.92 237.682L238.364 246.195L233.151 238.936L236.928 235.729Z" fill="#EFB7B9"/>
<path d="M251 155.751C260.427 155.751 268.07 147.564 268.07 137.465C268.07 127.366 260.427 119.178 251 119.178C241.572 119.178 233.93 127.366 233.93 137.465C233.93 147.564 241.572 155.751 251 155.751Z" fill="#EFB7B9"/>
<path d="M261.034 144.167C261.034 144.167 245.527 170.53 260.25 172.8C274.973 175.07 240.446 191.086 240.446 191.086L227.546 177.13C227.546 177.13 240.965 152.283 238.883 142.794C236.801 133.305 261.034 144.167 261.034 144.167Z" fill="#EFB7B9"/>
<path opacity="0.1" d="M239.323 253.357C242.767 254.476 246.277 255.346 249.829 255.962C249.829 255.962 269.029 265.094 276.022 262.092C276.34 259.112 276.928 256.246 276.928 256.246L241.384 249.487C240.637 250.82 239.948 252.114 239.323 253.357Z" fill="black"/>
<path d="M221.686 184.361L225.156 192.051L229.077 200.712L229.607 201.949L234.253 212.732L240.16 226.399C240.16 226.399 238.073 229.049 238.724 231.144C239.334 233.102 240.287 232.25 240.409 232.131C240.298 232.296 239.037 234.112 240.16 234.912C241.283 235.712 240.939 237.562 240.939 237.562C240.939 237.562 236.118 246.076 235.207 249.146C234.295 252.216 249.802 254.873 249.802 254.873C249.802 254.873 271.821 265.338 277.293 260.173C282.766 255.009 277.293 230.724 277.293 230.724C277.293 230.724 277.293 216.768 275.858 215.513C274.422 214.259 275.105 204.582 275.105 204.582C278.883 197.204 276.276 192.999 276.276 192.999L277.336 174.02C277.336 174.02 275.64 172.062 274.337 171.926C273.514 171.842 272.686 171.842 271.863 171.926C271.863 171.926 271.174 171.676 270.184 171.358C268.096 170.723 264.631 169.843 263.392 170.507C261.569 171.483 249.845 168.969 249.845 168.969C244.791 168.168 239.702 167.656 234.597 167.437C232.854 167.315 231.105 167.519 229.427 168.038C225.188 169.44 224.436 172.738 224.436 172.738C224.436 172.738 224.966 175.53 222.873 179.157C220.78 182.783 221.686 184.361 221.686 184.361Z" fill="#6C63FF"/>
<path opacity="0.1" d="M305.07 160.354L310.151 164.974C310.151 164.974 311.147 164.122 312.482 162.845C312.885 158.135 309.139 157.51 306.501 157.635L305.07 160.354Z" fill="black"/>
<path d="M275.105 173.895L277.32 174.037C277.32 174.037 282.528 174.73 284.207 173.055C285.887 171.381 291.894 170.825 291.894 170.825C291.894 170.825 293.59 167.193 295.412 166.08C297.235 164.968 301.669 162.868 301.77 161.75C301.87 160.632 303.465 158.543 303.465 158.543C303.465 158.543 313.234 156.029 311.804 164.264C310.374 172.499 302.464 179.61 302.464 179.61C302.464 179.61 301.552 184.219 298.554 185.337C295.555 186.455 276.144 196.222 273.018 193.708C269.892 191.194 275.105 173.895 275.105 173.895Z" fill="#6C63FF"/>
<path opacity="0.1" d="M222.857 179.151C224.939 175.524 224.42 172.732 224.42 172.732C224.42 172.732 225.172 169.435 229.411 168.033C230.238 167.764 231.088 167.586 231.948 167.499C227.774 168.918 227.027 172.176 227.027 172.176C227.027 172.176 227.556 174.968 225.464 178.595C223.371 182.221 224.288 183.759 224.288 183.759L227.763 191.45L231.678 200.105L232.24 201.348L236.886 212.103L242.793 225.769C242.793 225.769 240.706 228.425 241.357 230.519C241.967 232.477 242.92 231.62 243.042 231.507C242.931 231.666 241.67 233.488 242.793 234.288C243.916 235.088 243.572 236.938 243.572 236.938C243.572 236.938 238.751 245.451 237.84 248.522C236.928 251.592 252.435 254.243 252.435 254.243C252.435 254.243 267.725 261.513 275.99 260.945C268.965 263.897 249.829 254.804 249.829 254.804C249.829 254.804 234.322 252.148 235.233 249.078C236.144 246.008 240.965 237.5 240.965 237.5C240.965 237.5 241.358 235.684 240.187 234.85C239.016 234.015 240.324 232.233 240.436 232.069C240.314 232.188 239.376 233.039 238.751 231.081C238.099 228.987 240.187 226.336 240.187 226.336L234.279 212.664L229.633 201.881L229.103 200.644L225.183 191.983L221.713 184.293C221.713 184.293 220.77 182.783 222.857 179.151Z" fill="black"/>
<path d="M224.055 182.267L221.713 184.361C221.288 185.738 220.625 187.016 219.758 188.129C218.455 189.667 214.937 204.878 214.937 204.878C215.085 205.229 215.162 205.61 215.162 205.996C215.162 206.381 215.085 206.762 214.937 207.114C214.407 208.249 215.996 209.906 215.996 209.906C215.996 209.906 216.775 209.628 215.467 211.16C214.158 212.693 216.643 214.52 216.643 214.52C216.643 214.52 227.323 234.049 229.538 236.144C231.752 238.238 233.967 243.681 233.967 243.681C233.967 243.681 238.608 235.882 239.699 235.735L235.143 224.713C235.143 224.713 232.012 209.355 229.67 206.552C227.329 203.748 230.841 194.123 230.841 194.123L224.055 182.267Z" fill="#6C63FF"/>
<path opacity="0.1" d="M222.529 210.74C224.489 213.26 227.927 213.794 230.968 213.425C231.413 213.368 231.864 213.294 232.303 213.203C232.97 213.076 233.629 212.911 234.279 212.71C236.608 211.991 238.799 210.839 240.754 209.304C241.18 208.91 241.673 208.605 242.205 208.408C243.424 208.078 244.632 209.049 245.294 210.184C245.956 211.319 246.269 212.659 246.947 213.782C248.282 216.013 250.867 217.085 253.347 217.148C255.826 217.21 258.231 216.416 260.594 215.627C258.682 213.107 256.721 210.485 255.943 207.346C255.51 205.3 255.386 203.192 255.577 201.103C256.139 191.228 259.339 180.819 266.856 175.064C268.16 174.071 269.733 172.896 270.168 171.387C268.08 170.751 264.615 169.871 263.376 170.535C261.553 171.512 249.829 168.997 249.829 168.997C244.776 168.196 239.686 167.685 234.581 167.465C232.838 167.343 231.089 167.547 229.411 168.067C230.052 172.261 230.608 176.432 229.84 180.553C229.307 183.12 228.438 185.595 227.26 187.902C226.592 189.293 225.872 190.661 225.141 192.034C223.159 195.854 221.268 199.685 220.902 203.952C220.749 206.365 221.109 208.913 222.529 210.74Z" fill="black"/>
<path opacity="0.1" d="M248.292 230.377C247.275 230.236 246.247 229.867 245.241 230.094C244.385 230.367 243.602 230.856 242.957 231.518L249.654 231.558C251.376 231.558 253.972 231.671 255.291 230.366C254.083 229.083 250.014 230.616 248.292 230.377Z" fill="black"/>
<path d="M271.503 135.342C272.519 136.842 273.159 138.595 273.362 140.436C273.566 142.276 273.325 144.141 272.663 145.853C271.603 148.549 269.521 150.66 268.255 153.26C267.297 155.276 266.833 157.521 266.907 159.783C266.981 162.044 267.591 164.248 268.679 166.188C269.173 166.879 269.533 167.668 269.738 168.509C270.04 170.638 267.985 172.164 266.348 173.419C258.825 179.162 255.63 189.577 255.069 199.458C254.876 201.546 254.997 203.654 255.429 205.701C256.208 208.839 258.173 211.461 260.086 213.981C257.723 214.77 255.318 215.565 252.833 215.502C250.348 215.44 247.773 214.367 246.433 212.137C245.755 211.001 245.437 209.673 244.78 208.538C244.123 207.403 242.91 206.438 241.702 206.762C241.166 206.954 240.671 207.256 240.245 207.653C237.369 209.912 233.996 211.334 230.454 211.779C227.413 212.154 223.975 211.614 222.02 209.095C220.6 207.261 220.235 204.719 220.431 202.346C221.109 193.896 227.79 187.25 229.337 178.93C230.587 172.187 228.319 165.309 227.906 158.464C227.286 148.322 230.725 138.452 234.11 128.952C234.847 126.597 235.843 124.346 237.077 122.243C239.911 117.794 244.812 115.126 249.792 114.593C251.639 114.318 253.521 114.513 255.286 115.16C257.066 115.898 258.549 117.272 259.996 118.617C263.227 121.619 266.549 124.746 268.409 128.878C269.166 130.581 269.664 132.38 270.528 134.02L271.503 135.342Z" fill="#3F3D56"/>
<g opacity="0.1">
<path opacity="0.1" d="M268.43 131.636C267.582 129.996 267.09 128.18 266.311 126.494C265.587 124.922 264.679 123.455 263.609 122.13C265.552 124.066 267.165 126.349 268.377 128.878C269.113 130.512 269.606 132.283 270.406 133.878L269.378 132.947C269.647 133.329 269.888 133.734 270.099 134.156C269.447 133.393 268.887 132.547 268.43 131.636Z" fill="black"/>
<path opacity="0.1" d="M228.356 209.361C231.899 208.922 235.273 207.502 238.147 205.241C238.575 204.847 239.069 204.544 239.604 204.35C240.817 204.021 242.025 204.991 242.687 206.126C242.825 206.365 242.947 206.62 243.063 206.875C242.634 206.666 242.151 206.616 241.691 206.733C241.156 206.925 240.661 207.228 240.234 207.624C237.359 209.884 233.986 211.305 230.444 211.751C227.403 212.125 223.964 211.586 222.01 209.066C221.766 208.741 221.549 208.393 221.363 208.027C223.334 209.384 225.967 209.656 228.356 209.361Z" fill="black"/>
<path opacity="0.1" d="M250.74 213.096C253.214 213.158 255.625 212.363 257.988 211.575C256.075 209.055 254.115 206.433 253.336 203.294C252.903 201.247 252.779 199.14 252.971 197.051C253.532 187.17 256.732 176.756 264.255 171.012C265.892 169.758 267.964 168.231 267.646 166.097C267.437 165.259 267.077 164.472 266.586 163.782C265.498 161.842 264.887 159.638 264.812 157.377C264.737 155.115 265.2 152.87 266.157 150.853C267.429 148.254 269.495 146.142 270.57 143.441C271.143 141.953 271.4 140.347 271.323 138.739C271.246 137.131 270.837 135.562 270.125 134.145C270.484 134.549 270.866 134.928 271.27 135.28C271.559 135.713 271.874 136.126 272.213 136.517C272.925 137.936 273.334 139.506 273.41 141.115C273.486 142.724 273.227 144.33 272.652 145.819C271.593 148.515 269.511 150.626 268.244 153.225C267.286 155.242 266.823 157.487 266.897 159.748C266.971 162.01 267.58 164.214 268.668 166.154C269.162 166.844 269.523 167.634 269.728 168.475C270.03 170.604 267.974 172.13 266.337 173.384C258.814 179.128 255.62 189.542 255.058 199.423C254.865 201.512 254.987 203.62 255.418 205.666C256.197 208.805 258.163 211.427 260.075 213.947C257.712 214.736 255.307 215.53 252.822 215.468C250.337 215.405 247.763 214.333 246.422 212.102C246.332 211.955 246.253 211.802 246.173 211.648C247.544 212.567 249.123 213.067 250.74 213.096Z" fill="black"/>
</g>
<path opacity="0.2" d="M172.331 84.019V95.9374H124.024C125.497 93.7505 127.002 91.5938 128.538 89.4675C128.75 89.1723 128.962 88.8999 129.185 88.5878L131.447 85.5401L131.759 85.1258L132.581 84.0531L172.331 84.019Z" fill="#6C63FF"/>
<path opacity="0.2" d="M272.281 84.019H221.522V95.9261H272.281V84.019Z" fill="#6C63FF"/>
<path opacity="0.2" d="M388.862 84.019H338.103V95.9261H388.862V84.019Z" fill="#6C63FF"/>
<path opacity="0.2" d="M487.462 84.019H436.703V95.9261H487.462V84.019Z" fill="#6C63FF"/>
</g>
<defs>
<linearGradient id="paint0_linear" x1="117.264" y1="147.976" x2="117.264" y2="122.629" gradientUnits="userSpaceOnUse">
<stop stop-color="#808080" stop-opacity="0.25"/>
<stop offset="0.54" stop-color="#808080" stop-opacity="0.12"/>
<stop offset="1" stop-color="#808080" stop-opacity="0.1"/>
</linearGradient>
<linearGradient id="paint1_linear" x1="10178.9" y1="6378.78" x2="10178.9" y2="5246.56" gradientUnits="userSpaceOnUse">
<stop stop-color="#808080" stop-opacity="0.25"/>
<stop offset="0.54" stop-color="#808080" stop-opacity="0.12"/>
<stop offset="1" stop-color="#808080" stop-opacity="0.1"/>
</linearGradient>
<linearGradient id="paint2_linear" x1="15381.2" y1="8625.79" x2="15381.2" y2="7493.56" gradientUnits="userSpaceOnUse">
<stop stop-color="#808080" stop-opacity="0.25"/>
<stop offset="0.54" stop-color="#808080" stop-opacity="0.12"/>
<stop offset="1" stop-color="#808080" stop-opacity="0.1"/>
</linearGradient>
<linearGradient id="paint3_linear" x1="20689.4" y1="9392.08" x2="20689.4" y2="8260.11" gradientUnits="userSpaceOnUse">
<stop stop-color="#808080" stop-opacity="0.25"/>
<stop offset="0.54" stop-color="#808080" stop-opacity="0.12"/>
<stop offset="1" stop-color="#808080" stop-opacity="0.1"/>
</linearGradient>
<linearGradient id="paint4_linear" x1="22111.9" y1="10141.2" x2="22111.9" y2="9009.28" gradientUnits="userSpaceOnUse">
<stop stop-color="#808080" stop-opacity="0.25"/>
<stop offset="0.54" stop-color="#808080" stop-opacity="0.12"/>
<stop offset="1" stop-color="#808080" stop-opacity="0.1"/>
</linearGradient>
<linearGradient id="paint5_linear" x1="23895.4" y1="8139.65" x2="23895.4" y2="7007.42" gradientUnits="userSpaceOnUse">
<stop stop-color="#808080" stop-opacity="0.25"/>
<stop offset="0.54" stop-color="#808080" stop-opacity="0.12"/>
<stop offset="1" stop-color="#808080" stop-opacity="0.1"/>
</linearGradient>
<linearGradient id="paint6_linear" x1="23534.4" y1="9763.16" x2="23534.4" y2="8631.19" gradientUnits="userSpaceOnUse">
<stop stop-color="#808080" stop-opacity="0.25"/>
<stop offset="0.54" stop-color="#808080" stop-opacity="0.12"/>
<stop offset="1" stop-color="#808080" stop-opacity="0.1"/>
</linearGradient>
<linearGradient id="paint7_linear" x1="11750.2" y1="6378.78" x2="11750.2" y2="5246.56" gradientUnits="userSpaceOnUse">
<stop stop-color="#808080" stop-opacity="0.25"/>
<stop offset="0.54" stop-color="#808080" stop-opacity="0.12"/>
<stop offset="1" stop-color="#808080" stop-opacity="0.1"/>
</linearGradient>
<linearGradient id="paint8_linear" x1="6368.14" y1="9184.5" x2="6368.14" y2="8052.27" gradientUnits="userSpaceOnUse">
<stop stop-color="#808080" stop-opacity="0.25"/>
<stop offset="0.54" stop-color="#808080" stop-opacity="0.12"/>
<stop offset="1" stop-color="#808080" stop-opacity="0.1"/>
</linearGradient>
<linearGradient id="paint9_linear" x1="11010.1" y1="8046.88" x2="11010.1" y2="6914.91" gradientUnits="userSpaceOnUse">
<stop stop-color="#808080" stop-opacity="0.25"/>
<stop offset="0.54" stop-color="#808080" stop-opacity="0.12"/>
<stop offset="1" stop-color="#808080" stop-opacity="0.1"/>
</linearGradient>
<linearGradient id="paint10_linear" x1="17013.5" y1="7355.23" x2="17013.5" y2="6223.26" gradientUnits="userSpaceOnUse">
<stop stop-color="#808080" stop-opacity="0.25"/>
<stop offset="0.54" stop-color="#808080" stop-opacity="0.12"/>
<stop offset="1" stop-color="#808080" stop-opacity="0.1"/>
</linearGradient>
<linearGradient id="paint11_linear" x1="23090.9" y1="6543.61" x2="23090.9" y2="5411.63" gradientUnits="userSpaceOnUse">
<stop stop-color="#808080" stop-opacity="0.25"/>
<stop offset="0.54" stop-color="#808080" stop-opacity="0.12"/>
<stop offset="1" stop-color="#808080" stop-opacity="0.1"/>
</linearGradient>
<linearGradient id="paint12_linear" x1="18533.1" y1="6378.78" x2="18533.1" y2="5246.56" gradientUnits="userSpaceOnUse">
<stop stop-color="#808080" stop-opacity="0.25"/>
<stop offset="0.54" stop-color="#808080" stop-opacity="0.12"/>
<stop offset="1" stop-color="#808080" stop-opacity="0.1"/>
</linearGradient>
<linearGradient id="paint13_linear" x1="18467.9" y1="8625.79" x2="18467.9" y2="7493.56" gradientUnits="userSpaceOnUse">
<stop stop-color="#808080" stop-opacity="0.25"/>
<stop offset="0.54" stop-color="#808080" stop-opacity="0.12"/>
<stop offset="1" stop-color="#808080" stop-opacity="0.1"/>
</linearGradient>
<linearGradient id="paint14_linear" x1="13296.8" y1="6937.49" x2="13296.8" y2="5805.52" gradientUnits="userSpaceOnUse">
<stop stop-color="#808080" stop-opacity="0.25"/>
<stop offset="0.54" stop-color="#808080" stop-opacity="0.12"/>
<stop offset="1" stop-color="#808080" stop-opacity="0.1"/>
</linearGradient>
<linearGradient id="paint15_linear" x1="7176.88" y1="7309.88" x2="7176.88" y2="6177.91" gradientUnits="userSpaceOnUse">
<stop stop-color="#808080" stop-opacity="0.25"/>
<stop offset="0.54" stop-color="#808080" stop-opacity="0.12"/>
<stop offset="1" stop-color="#808080" stop-opacity="0.1"/>
</linearGradient>
<linearGradient id="paint16_linear" x1="7752.67" y1="8625.79" x2="7752.67" y2="7493.56" gradientUnits="userSpaceOnUse">
<stop stop-color="#808080" stop-opacity="0.25"/>
<stop offset="0.54" stop-color="#808080" stop-opacity="0.12"/>
<stop offset="1" stop-color="#808080" stop-opacity="0.1"/>
</linearGradient>
<linearGradient id="paint17_linear" x1="12530.3" y1="8813.41" x2="12530.3" y2="7681.44" gradientUnits="userSpaceOnUse">
<stop stop-color="#808080" stop-opacity="0.25"/>
<stop offset="0.54" stop-color="#808080" stop-opacity="0.12"/>
<stop offset="1" stop-color="#808080" stop-opacity="0.1"/>
</linearGradient>
<linearGradient id="paint18_linear" x1="20960" y1="6543.61" x2="20960" y2="5411.63" gradientUnits="userSpaceOnUse">
<stop stop-color="#808080" stop-opacity="0.25"/>
<stop offset="0.54" stop-color="#808080" stop-opacity="0.12"/>
<stop offset="1" stop-color="#808080" stop-opacity="0.1"/>
</linearGradient>
<linearGradient id="paint19_linear" x1="21979.3" y1="8139.65" x2="21979.3" y2="7007.42" gradientUnits="userSpaceOnUse">
<stop stop-color="#808080" stop-opacity="0.25"/>
<stop offset="0.54" stop-color="#808080" stop-opacity="0.12"/>
<stop offset="1" stop-color="#808080" stop-opacity="0.1"/>
</linearGradient>
<linearGradient id="paint20_linear" x1="15481.9" y1="6378.78" x2="15481.9" y2="5246.56" gradientUnits="userSpaceOnUse">
<stop stop-color="#808080" stop-opacity="0.25"/>
<stop offset="0.54" stop-color="#808080" stop-opacity="0.12"/>
<stop offset="1" stop-color="#808080" stop-opacity="0.1"/>
</linearGradient>
<linearGradient id="paint21_linear" x1="16883.1" y1="9763.16" x2="16883.1" y2="8631.19" gradientUnits="userSpaceOnUse">
<stop stop-color="#808080" stop-opacity="0.25"/>
<stop offset="0.54" stop-color="#808080" stop-opacity="0.12"/>
<stop offset="1" stop-color="#808080" stop-opacity="0.1"/>
</linearGradient>
<linearGradient id="paint22_linear" x1="-51473.4" y1="283337" x2="-51473.4" y2="78019.6" gradientUnits="userSpaceOnUse">
<stop stop-color="#808080" stop-opacity="0.25"/>
<stop offset="0.54" stop-color="#808080" stop-opacity="0.12"/>
<stop offset="1" stop-color="#808080" stop-opacity="0.1"/>
</linearGradient>
<linearGradient id="paint23_linear" x1="-51473.4" y1="283337" x2="-51473.4" y2="78019.6" gradientUnits="userSpaceOnUse">
<stop stop-color="#808080" stop-opacity="0.25"/>
<stop offset="0.54" stop-color="#808080" stop-opacity="0.12"/>
<stop offset="1" stop-color="#808080" stop-opacity="0.1"/>
</linearGradient>
<clipPath id="clip0">
</clipPath>
</defs>
</svg>
